<svg xmlns="http://www.w3.org/2000/svg" xml:space="preserve" viewBox="0 0 24 24" enable-background="new 0 0 24 24" id="countdown">
  <g id="Icons" fill="#5199c9" class="color000000 svgShape">
    <g fill="#5199c9" class="color000000 svgShape">
      <path d="M4.707031,5.707031l2-2c0.390625-0.390625,0.390625-1.023438,0-1.414062s-1.023438-0.390625-1.414062,0l-2,2
			c-0.390625,0.390625-0.390625,1.023438,0,1.414062C3.488281,5.902344,3.744141,6,4,6S4.511719,5.902344,4.707031,5.707031z" fill="#5199c9" class="color000000 svgShape"></path>
      <path d="M11.292969,12.707031C11.488281,12.902344,11.744141,13,12,13s0.511719-0.097656,0.707031-0.292969l8-8
			c0.390625-0.390625,0.390625-1.023438,0-1.414062s-1.023438-0.390625-1.414062,0L17.61676,4.969177
			C16.020752,3.69519,14.061584,3,12,3c-4.962402,0-9,4.037109-9,9c0,2.668945,1.174377,5.062927,3.025635,6.712463
			l-0.920166,1.840271c-0.24707,0.494141-0.046875,1.094727,0.447266,1.341797C5.696289,21.96582,5.849121,22,5.999023,22
			c0.367188,0,0.720215-0.202148,0.895508-0.552734l0.779541-1.559143C8.958801,20.59552,10.432678,21,12,21
			s3.041199-0.40448,4.325928-1.111877l0.779541,1.559143C17.280762,21.797852,17.633789,22,18.000977,22
			c0.149902,0,0.302734-0.03418,0.446289-0.105469c0.494141-0.24707,0.694336-0.847656,0.447266-1.341797l-0.920166-1.840271
			C19.825623,17.062927,21,14.668945,21,12c0-0.552734-0.447754-1-1-1s-1,0.447266-1,1c0,3.859375-3.140137,7-7,7s-7-3.140625-7-7
			s3.140137-7,7-7c1.526733,0,2.979126,0.495117,4.187866,1.398071l-4.894897,4.894897
			C10.902344,11.683594,10.902344,12.316406,11.292969,12.707031z" fill="#5199c9" class="color000000 svgShape"></path>
    </g>
  </g>
</svg>
