<svg id="SvgjsSvg1018" width="288" height="288" xmlns="http://www.w3.org/2000/svg" version="1.1" xmlns:xlink="http://www.w3.org/1999/xlink" xmlns:svgjs="http://svgjs.com/svgjs"><defs id="SvgjsDefs1019"></defs><g id="SvgjsG1020"><svg xmlns="http://www.w3.org/2000/svg" viewBox="0 0 64 64" width="288" height="288"><path d="M50 24H10a2 2 0 0 1-2-2V12a2 2 0 0 1 2-2h40a2 2 0 0 1 2 2v10a2 2 0 0 1-2 2zm-38-4h36v-6H12z" fill="#320a6b" class="svgShape color000000-0 selectable"></path><path d="M42 18a2 2 0 0 1-2-2V8a2 2 0 0 1 4 0v8a2 2 0 0 1-2 2zm-24 0a2 2 0 0 1-2-2V8a2 2 0 0 1 4 0v8a2 2 0 0 1-2 2z" fill="#320a6b" class="svgShape color000000-1 selectable"></path><path d="M32 54H14a6 6 0 0 1-6-6V12a2 2 0 0 1 2-2h40a2 2 0 0 1 2 2v22a2 2 0 0 1-4 0V14H12v34a2 2 0 0 0 2 2h18a2 2 0 0 1 0 4z" fill="#320a6b" class="svgShape color000000-2 selectable"></path><path d="M42 58a14 14 0 1 1 14-14 14 14 0 0 1-14 14zm0-24a10 10 0 1 0 10 10 10 10 0 0 0-10-10z" fill="#320a6b" class="svgShape color000000-3 selectable"></path><path d="M48 46h-6a2 2 0 0 1-2-2v-8h4v6h4z" fill="#320a6b" class="svgShape color000000-4 selectable"></path></svg></g></svg>